<?xml version="1.0" encoding="utf-8"?>
<!-- Generator: Adobe Illustrator 16.0.0, SVG Export Plug-In . SVG Version: 6.00 Build 0)  -->
<!DOCTYPE svg PUBLIC "-//W3C//DTD SVG 1.1//EN" "http://www.w3.org/Graphics/SVG/1.1/DTD/svg11.dtd">
<svg version="1.1" id="Capa_1" xmlns="http://www.w3.org/2000/svg" xmlns:xlink="http://www.w3.org/1999/xlink" x="0px" y="0px"
	 width="64px" height="64px" viewBox="0 0 64 64" style="enable-background:new 0 0 64 64;" xml:space="preserve">
	<g fill="white">
		<g id="circle_copy_4_2_">
			<path d="M32,0C14.327,0,0,14.327,0,32s14.327,32,32,32s32-14.327,32-32S49.673,0,32,0z M32,62.001C15.432,62.001,2,48.568,2,32
				C2,15.432,15.432,2,32,2c16.568,0,30,13.432,30,30C62,48.568,48.568,62.001,32,62.001z" />
		</g>
		<g id="Menu_3_">
			<polygon points="41.191,24.222 39.777,22.808 32,30.586 24.222,22.808 22.808,24.222 30.586,32 22.808,39.777 24.222,41.191 
					32,33.414 39.777,41.191 41.191,39.777 33.414,32" />
		</g>
	</g>
</svg>
